<?xml version="1.0" standalone="no"?>
<!DOCTYPE svg PUBLIC "-//W3C//DTD SVG 20010904//EN"
 "http://www.w3.org/TR/2001/REC-SVG-20010904/DTD/svg10.dtd">
<svg version="1.0" xmlns="http://www.w3.org/2000/svg"
 width="1129.000000pt" height="776.000000pt" viewBox="0 0 1129.000000 776.000000"
 preserveAspectRatio="xMidYMid meet">
<metadata>
Created by potrace 1.16, written by Peter Selinger 2001-2019
</metadata>
<g transform="translate(0.000000,776.000000) scale(0.100000,-0.100000)"
fill="#000000" stroke="none">
<path d="M0 3880 l0 -3880 5645 0 5645 0 0 3880 0 3880 -5645 0 -5645 0 0
-3880z m10231 3705 c156 -29 278 -78 409 -163 249 -161 424 -426 475 -721 22
-126 22 -5516 0 -5642 -40 -232 -153 -441 -326 -604 -129 -122 -293 -213 -474
-263 l-100 -27 -4525 -3 c-3396 -2 -4544 0 -4600 9 -244 37 -461 149 -631 325
-147 152 -247 349 -284 563 -22 126 -22 5516 0 5642 39 226 147 430 312 590
154 150 337 247 545 289 90 18 248 18 4604 19 4030 1 4521 -1 4595 -14z"/>
<path d="M10454 6129 c-11 -4 -13 -8 -7 -8 8 -1 11 -11 9 -23 -2 -13 1 -33 5
-46 13 -33 21 -71 26 -121 l5 -43 47 6 c25 3 100 11 166 17 66 6 122 12 125
14 6 4 0 54 -16 133 -3 18 -10 35 -15 38 -5 3 -9 15 -9 27 0 18 -2 19 -10 7
-7 -10 -13 -11 -17 -4 -5 5 -19 10 -33 10 -14 0 -28 -5 -32 -10 -5 -7 -11 -6
-18 4 -9 13 -11 13 -20 0 -9 -13 -11 -13 -20 0 -9 13 -11 13 -20 0 -9 -13 -11
-13 -20 0 -7 10 -12 12 -17 4 -5 -7 -26 -9 -59 -5 -29 4 -60 4 -70 0z"/>
<path d="M8790 6100 c-1 -8 -4 -24 -6 -35 -2 -11 -7 -60 -10 -110 -16 -244
111 -450 372 -603 126 -75 200 -97 783 -237 363 -87 466 -129 563 -233 59 -63
85 -114 97 -194 31 -188 -69 -368 -257 -466 -106 -55 -202 -80 -362 -94 -155
-13 -304 -1 -417 33 -315 97 -458 252 -527 572 -7 32 -10 32 -172 17 -186 -18
-174 -12 -174 -73 1 -220 156 -509 351 -657 215 -161 469 -231 852 -231 229 0
417 40 596 129 196 96 350 265 426 466 24 63 25 78 25 261 0 181 -2 201 -24
264 -57 164 -184 302 -368 400 -123 66 -397 147 -716 211 -337 68 -540 146
-624 238 -58 65 -78 122 -85 239 -3 51 -10 90 -14 87 -5 -3 -15 -2 -21 3 -9 5
-1 10 22 14 19 4 -38 7 -127 8 -141 1 -162 -1 -157 -14 4 -8 1 -15 -4 -15 -6
0 -13 8 -15 18 -4 13 -5 13 -7 2z"/>
<path d="M7763 6083 c13 -3 16 -12 12 -34 -3 -16 -1 -39 5 -50 15 -26 14 -154
-1 -215 -53 -220 -209 -346 -476 -384 -78 -11 -618 -29 -895 -30 l-148 0 0
123 c0 125 -15 420 -26 516 -4 38 -9 50 -15 40 -8 -12 -10 -12 -19 1 -9 13
-11 13 -20 0 -9 -13 -11 -13 -20 0 -9 13 -11 13 -20 0 -9 -13 -11 -13 -20 0
-9 13 -11 13 -20 0 -9 -13 -11 -13 -20 0 -9 13 -11 13 -20 0 -9 -13 -11 -13
-20 0 -9 13 -11 13 -20 0 -9 -13 -11 -13 -20 0 -9 13 -11 13 -20 0 -9 -13 -11
-13 -20 0 -9 13 -11 13 -20 0 -9 -13 -12 -13 -24 3 -20 26 -23 14 -25 -88 -1
-49 -4 -103 -6 -120 -1 -16 3 -419 11 -895 7 -476 13 -936 14 -1022 l0 -158
191 0 192 0 -7 203 c-3 111 -9 398 -12 638 l-7 436 138 6 c76 4 213 7 306 7
141 0 177 -3 235 -21 110 -34 170 -68 245 -137 98 -91 212 -246 517 -705 l264
-399 227 7 c124 4 228 9 230 11 5 4 -434 667 -536 809 -97 136 -242 297 -317
352 -33 25 -92 61 -129 79 -37 19 -65 38 -63 43 3 5 27 12 53 15 192 27 420
137 536 259 89 93 160 232 178 347 13 88 7 266 -13 328 l-13 42 -190 -1 c-104
-1 -182 -3 -172 -6z"/>
<path d="M5135 6043 c-16 -3 -33 -10 -37 -16 -6 -9 -11 -8 -18 3 -9 13 -11 13
-20 0 -9 -13 -11 -13 -20 0 -9 13 -11 13 -20 0 -9 -13 -11 -13 -21 0 -8 11
-12 12 -16 3 -2 -7 -9 -13 -14 -13 -6 0 -7 5 -4 10 3 6 0 10 -9 10 -8 0 -17
-6 -19 -12 -4 -10 -8 -9 -16 2 -10 13 -12 13 -22 0 -8 -11 -12 -12 -16 -2 -8
19 -29 14 -30 -8 -1 -12 5 -20 15 -21 9 0 12 -3 5 -5 -8 -4 -6 -23 8 -72 10
-37 19 -80 19 -96 l0 -29 83 6 c45 4 123 11 172 17 50 5 91 10 93 10 2 0 1 8
-2 18 -3 9 -8 40 -12 67 -3 28 -10 54 -15 60 -5 5 -9 18 -9 30 0 23 -18 46
-34 44 -6 -1 -24 -4 -41 -6z"/>
<path d="M3298 6013 c-76 -3 -86 -6 -81 -20 4 -10 2 -14 -4 -10 -28 18 -42
-193 -18 -285 57 -226 244 -411 515 -511 104 -39 318 -98 420 -116 80 -15 309
-72 450 -112 202 -58 318 -134 381 -251 33 -61 34 -66 34 -178 0 -108 -2 -119
-31 -180 -57 -118 -141 -191 -287 -250 -111 -44 -205 -61 -367 -67 -150 -6
-261 7 -375 44 -297 94 -426 240 -500 567 l-6 28 -82 -7 c-45 -3 -122 -12
-172 -19 l-90 -12 3 -59 c14 -253 180 -539 395 -682 130 -86 318 -154 512
-184 103 -16 426 -16 530 0 240 37 488 159 622 305 69 75 142 202 179 312 36
105 44 255 20 373 -68 336 -294 528 -762 645 -76 20 -213 52 -304 71 -199 44
-401 98 -492 131 -199 74 -292 228 -263 432 4 33 3 42 -9 42 -8 0 -17 -6 -19
-12 -4 -10 -8 -9 -16 2 -10 13 -12 13 -21 0 -9 -13 -11 -13 -20 0 -9 13 -11
13 -21 0 -8 -11 -12 -12 -16 -2 -2 6 -8 11 -11 10 -4 -1 -46 -4 -94 -5z"/>
<path d="M1590 5982 c0 -5 25 -7 55 -4 30 2 55 0 55 -5 0 -5 -19 -9 -41 -10
-23 -1 -44 -4 -47 -7 -8 -8 54 -192 121 -361 109 -273 269 -690 270 -705 2
-13 -61 -16 -481 -23 -266 -5 -486 -7 -488 -5 -4 4 94 291 196 578 68 190 127
375 141 440 5 25 12 59 16 75 6 28 5 29 -12 15 -11 -9 -16 -10 -11 -2 4 7 2
12 -8 12 -8 0 -17 -6 -19 -12 -4 -10 -8 -9 -16 2 -10 13 -12 13 -21 0 -9 -13
-11 -13 -20 0 -9 13 -11 13 -20 0 -9 -13 -11 -13 -20 0 -9 13 -11 13 -20 0 -9
-13 -11 -13 -20 0 -9 13 -11 13 -20 0 -9 -13 -11 -13 -20 0 -9 13 -11 13 -20
0 -8 -12 -12 -13 -19 -1 -7 11 -12 10 -29 -5 -12 -10 -19 -21 -17 -25 3 -4 -2
-12 -10 -19 -8 -7 -15 -21 -15 -31 0 -10 -4 -20 -9 -23 -5 -3 -12 -17 -15 -31
-4 -14 -17 -49 -31 -79 -13 -29 -32 -75 -41 -102 -9 -27 -80 -222 -159 -434
-78 -212 -185 -502 -238 -645 -53 -143 -117 -318 -144 -390 l-48 -130 -3 -184
c-2 -101 0 -187 5 -191 4 -3 64 -4 134 -2 l125 4 69 201 c119 352 228 662 234
668 3 4 245 10 536 13 292 4 557 9 590 12 33 2 65 1 71 -3 6 -4 34 -64 61
-133 28 -69 103 -255 168 -415 64 -159 120 -296 123 -304 4 -11 41 -13 209 -9
112 3 207 8 210 12 7 6 -17 63 -232 561 -147 340 -264 611 -474 1100 -62 143
-140 316 -174 385 -33 69 -62 134 -64 145 -2 10 -7 22 -12 25 -4 3 -13 15 -20
28 -11 21 -16 22 -171 22 -88 0 -160 -4 -160 -8z"/>
<path d="M9610 3439 c-195 -3 -444 -7 -552 -8 l-198 -1 0 -98 c0 -54 3 -201 7
-325 l6 -227 82 0 83 0 6 -202 c10 -352 21 -915 18 -932 -3 -13 -17 -16 -83
-16 l-79 0 0 -29 c0 -16 3 -43 6 -60 l7 -31 173 0 173 0 -1 553 c0 303 -3 635
-6 737 l-7 185 -82 -4 -81 -3 -7 73 c-4 41 -5 97 -3 124 l3 50 335 6 c184 4
451 7 593 9 l258 2 154 -149 154 -148 5 -145 c3 -80 7 -225 8 -322 l3 -177
-144 -153 c-80 -84 -150 -156 -156 -160 -7 -4 -113 -8 -236 -10 -123 -1 -282
-4 -353 -6 l-128 -3 6 -32 c3 -18 6 -106 7 -197 2 -176 6 -220 21 -220 5 0 6
5 3 10 -3 6 -2 10 4 10 5 0 11 -6 13 -12 3 -9 9 -8 22 5 10 9 23 17 29 16 9 0
8 -2 0 -6 -22 -8 -14 -20 15 -21 15 0 30 5 35 12 5 8 10 7 17 -4 6 -10 13 -11
18 -5 9 13 62 16 62 4 0 -17 51 -9 72 11 12 11 24 17 27 14 3 -3 -1 -9 -9 -14
-8 -5 -11 -12 -7 -17 5 -4 12 -1 16 6 5 7 13 11 18 8 6 -4 11 17 12 48 l2 55
-90 0 -91 0 0 70 c0 66 1 70 23 70 12 0 150 3 307 7 l285 6 111 116 c60 64
152 162 202 217 l92 102 0 259 c0 143 -3 321 -7 396 l-6 137 -209 215 -210
215 -196 -2 c-109 -1 -357 -5 -552 -9z"/>
<path d="M7715 3409 l-430 -8 -208 -213 -207 -213 5 -385 c3 -212 7 -441 10
-510 3 -69 8 -213 11 -320 4 -107 8 -208 9 -225 2 -16 3 -38 4 -49 1 -16 6
-18 43 -12 23 4 48 12 55 18 9 7 13 7 13 -1 0 -6 13 -10 30 -9 23 2 32 9 40
32 11 31 6 1163 -6 1296 l-5 65 163 161 163 162 356 6 355 7 157 -153 157
-153 10 -610 c6 -335 13 -623 15 -640 3 -16 8 -58 12 -93 4 -43 9 -59 15 -50
8 10 11 10 15 1 2 -7 17 -13 33 -13 16 0 31 6 33 13 4 9 8 8 16 -3 10 -13 12
-13 21 0 8 13 11 13 19 1 10 -15 35 -5 26 10 -4 5 -2 9 3 9 9 0 8 810 -3 1200
l-6 245 -222 223 c-179 179 -227 222 -247 220 -14 0 -218 -5 -455 -9z"/>
<path d="M6015 3379 c-187 -3 -341 -7 -342 -8 -5 -2 -3 -258 4 -428 l6 -173
43 0 42 0 4 -127 c2 -71 1 -131 -2 -134 -3 -4 -73 -10 -157 -14 l-151 -7 -4
128 c-2 71 -2 135 0 142 3 7 21 12 43 12 l39 0 0 88 c0 49 -3 184 -7 301 l-6
212 -471 -6 c-259 -3 -480 -8 -492 -10 -21 -5 -21 -8 -17 -207 2 -112 6 -259
9 -327 l6 -124 79 6 c43 4 81 3 83 -2 7 -11 31 -1129 25 -1136 -3 -2 -42 -7
-87 -11 -66 -6 -82 -10 -78 -21 4 -8 6 -32 6 -54 0 -35 3 -39 24 -39 13 0 27
6 30 13 5 9 7 9 12 -1 5 -10 9 -10 21 -1 12 10 16 10 24 -2 8 -12 10 -12 19 1
8 13 11 12 24 -5 14 -18 15 -18 16 -2 0 18 20 24 20 6 0 -8 6 -7 17 2 13 11
17 11 20 2 3 -7 17 -13 33 -13 16 0 31 6 33 13 4 9 8 9 15 -2 7 -10 11 -10 17
-1 4 6 14 9 22 6 13 -5 14 77 8 716 -4 398 -10 726 -13 730 -4 4 -43 8 -87 10
l-80 3 -3 116 -3 116 77 7 c42 3 168 6 279 6 237 0 215 15 215 -142 l0 -98
-45 0 -45 0 0 -103 c0 -57 3 -198 7 -313 l6 -209 291 3 c160 1 324 5 364 8
l72 6 0 309 0 309 -50 0 -50 0 0 118 0 119 128 6 c70 4 191 7 270 7 l142 0 0
-120 0 -120 -70 0 -70 0 0 -72 c0 -154 20 -1156 25 -1213 2 -33 4 -91 5 -130
0 -50 3 -66 10 -55 8 13 11 13 19 1 5 -7 13 -11 18 -8 6 4 73 7 150 8 l140 1
1 59 0 59 -67 0 -68 0 -6 407 c-4 223 -7 482 -7 575 l0 168 71 0 72 0 -7 77
c-3 42 -6 188 -6 325 l0 248 -137 -2 c-76 -1 -291 -5 -478 -9z"/>
<path d="M3151 3330 l-214 -5 -205 -213 -205 -214 6 -281 c4 -155 7 -311 7
-346 l0 -64 163 -164 162 -165 70 6 c105 8 641 10 654 2 17 -11 15 -343 -1
-347 -7 -2 -80 -4 -163 -4 l-150 0 -3 103 -3 102 -187 0 c-103 0 -265 -3 -361
-7 l-174 -6 7 -116 c4 -64 7 -125 8 -136 0 -22 18 -75 25 -75 2 0 13 9 25 20
21 19 21 19 40 -2 16 -19 21 -20 29 -8 8 11 12 12 16 3 2 -7 16 -13 29 -13 22
0 24 4 25 58 1 31 0 67 0 78 -3 30 20 34 182 34 l137 0 0 -49 c0 -46 3 -52 41
-82 l41 -32 160 6 c116 4 164 10 170 19 6 10 10 10 18 -2 9 -13 11 -13 20 0 9
13 11 13 20 0 9 -13 11 -13 20 0 9 13 11 13 20 0 9 -13 11 -13 20 0 9 13 11
13 20 0 9 -13 11 -13 21 0 8 11 12 12 16 3 6 -15 63 -18 63 -3 0 6 5 10 11 10
5 0 7 -4 4 -10 -3 -5 -1 -10 4 -10 6 0 11 7 11 15 0 8 4 15 9 15 5 0 17 7 25
16 14 13 16 52 16 273 l0 257 -39 38 -40 39 -378 -7 -378 -8 -90 98 c-49 53
-97 106 -106 118 -13 18 -17 62 -22 281 l-6 260 142 150 c117 124 148 151 177
156 19 4 190 9 379 11 l343 4 154 -149 154 -149 0 -49 0 -49 -117 -2 c-65 0
-131 -2 -146 -3 -21 -2 -31 4 -37 20 -5 12 -37 47 -73 78 l-64 57 -209 0
c-115 0 -227 -5 -248 -10 -27 -6 -57 -26 -98 -67 l-58 -58 6 -200 6 -200 42
-43 41 -43 375 7 375 6 107 -108 106 -109 6 -60 c3 -33 6 -145 7 -250 1 -104
7 -220 12 -256 l10 -67 99 -1 99 -2 -3 364 -3 363 -149 156 -149 157 -384 -6
-383 -6 0 110 0 110 152 6 c84 3 156 3 160 1 4 -3 8 -32 8 -65 l0 -59 278 0
c152 0 314 3 360 7 l82 6 0 190 0 191 -192 193 -192 193 -276 -2 c-151 -1
-371 -5 -489 -8z"/>
<path d="M9673 2993 l-123 -4 0 -97 c0 -53 3 -227 7 -387 l6 -290 291 3 291 3
69 67 68 67 -6 260 -6 260 -65 63 -65 62 -173 -2 c-94 -1 -227 -4 -294 -5z
m388 -290 c1 -49 2 -131 3 -183 l1 -95 -147 -3 -148 -3 0 186 0 185 145 0 145
0 1 -87z"/>
<path d="M7456 2894 l-69 -64 12 -568 c6 -312 12 -599 13 -639 0 -39 5 -77 9
-85 5 -7 9 -9 9 -5 0 4 11 -3 23 -17 13 -14 27 -23 31 -19 4 4 11 1 17 -7 8
-13 10 -13 19 0 8 13 11 13 19 1 5 -7 13 -11 18 -8 12 8 488 11 500 4 12 -8
28 4 36 26 3 9 14 17 22 17 9 0 13 5 10 10 -3 6 -2 10 4 10 12 0 14 187 5 795
l-7 491 -57 62 -58 62 -243 0 -244 -1 -69 -65z m467 -341 c4 -115 10 -373 13
-575 l7 -368 -165 0 -165 0 -6 428 c-4 235 -7 491 -7 569 l0 142 33 4 c17 2
89 5 158 5 l126 2 6 -207z"/>
<path d="M5493 2063 l-243 -3 5 -73 c3 -39 7 -175 10 -302 2 -126 5 -231 5
-233 0 -2 63 -2 141 -1 l140 2 -3 36 c-3 33 -6 36 -36 37 -18 1 -35 4 -39 7
-8 9 -16 265 -8 295 5 22 8 22 164 22 l159 0 4 -142 c2 -79 2 -150 0 -158 -2
-10 -16 -17 -39 -18 -49 -4 -51 -6 -43 -49 4 -26 11 -37 21 -34 8 2 34 6 59 9
25 3 48 10 53 16 5 8 10 6 17 -4 9 -13 11 -13 21 0 8 11 12 12 16 3 2 -7 17
-13 33 -13 16 0 31 6 33 13 4 9 8 8 16 -3 8 -11 11 73 11 293 l0 307 -127 -2
c-71 -2 -237 -4 -370 -5z"/>
<path d="M680 569 c105 -97 300 -181 465 -200 48 -5 1868 -9 4505 -9 3808 0
4438 2 4521 15 103 15 233 58 308 101 60 35 151 103 151 112 0 4 -1081 8
-2403 10 -1321 2 -3570 5 -4997 8 l-2595 5 45 -42z"/>
</g>
</svg>
